 <svg  version="1.0" xmlns="http://www.w3.org/2000/svg"  width="300.000000pt" height="300.000000pt" viewBox="0 0 300.000000 300.000000"  preserveAspectRatio="xMidYMid meet">  <g transform="translate(0.000000,300.000000) scale(0.100000,-0.100000)" fill="#1d1772" stroke="none"> <path d="M1451 2437 c-43 -22 -65 -63 -66 -120 l0 -52 -35 -3 c-45 -4 -70 -27 -70 -63 0 -62 102 -77 188 -29 l38 22 37 -22 c48 -28 105 -31 123 -5 22 29 17 54 -16 83 -25 22 -30 34 -30 70 0 24 -7 56 -15 72 -27 53 -100 75 -154 47z m104 -49 c19 -17 26 -33 27 -63 1 -44 11 -69 40 -102 18 -20 19 -22 2 -31 -12 -7 -31 -4 -67 11 -48 20 -50 20 -96 2 -57 -22 -102 -28 -120 -16 -17 11 -6 31 16 31 30 0 63 41 63 78 0 94 73 143 135 90z"/> <path d="M987 2246 c-55 -20 -103 -61 -134 -114 -28 -46 -28 -49 -31 -246 -4 -217 2 -252 46 -263 54 -13 57 -4 62 224 4 177 8 213 23 236 31 48 64 62 151 63 83 1 106 13 106 56 0 40 -35 58 -112 58 -40 -1 -90 -7 -111 -14z m162 -35 c27 -17 0 -29 -62 -29 -89 1 -150 -36 -176 -105 -6 -15 -11 -109 -11 -212 -1 -177 -8 -220 -31 -184 -5 8 -9 96 -9 197 0 160 2 187 19 220 23 44 70 91 109 108 32 14 141 18 161 5z"/> <path d="M1787 2243 c-20 -23 -22 -64 -5 -81 7 -7 44 -12 95 -12 95 0 139 -14 171 -55 21 -26 22 -38 22 -228 0 -184 2 -204 21 -245 12 -24 30 -49 40 -55 14 -9 19 -24 19 -59 0 -54 29 -97 80 -118 70 -29 160 34 160 111 0 54 -48 107 -105 116 -23 3 -52 17 -67 31 l-28 26 0 180 c0 100 -5 199 -10 220 -13 56 -58 116 -114 151 -45 27 -58 30 -155 33 -95 4 -108 2 -124 -15z m244 -43 c53 -28 93 -72 106 -117 6 -21 11 -118 12 -215 0 -116 4 -185 12 -200 22 -44 53 -69 105 -84 56 -16 84 -45 84 -86 0 -54 -58 -90 -113 -69 -31 12 -44 34 -51 89 -3 24 -19 62 -40 92 l-36 52 0 198 c0 220 -4 239 -67 287 -30 23 -48 28 -123 33 -49 3 -91 8 -95 12 -18 18 13 28 86 28 60 0 89 -5 120 -20z"/> <path d="M1232 2027 c-38 -41 -25 -95 28 -117 25 -10 34 -10 55 4 33 22 47 50 39 81 -14 54 -84 73 -122 32z m77 -36 c8 -14 6 -22 -8 -35 -17 -16 -20 -16 -35 -1 -19 20 -20 27 -4 43 17 17 36 15 47 -7z"/> <path d="M1451 2024 c-34 -44 -26 -86 21 -110 35 -18 61 -11 88 23 26 34 25 59 -5 88 -33 34 -77 33 -104 -1z m77 -38 c5 -25 -12 -39 -37 -31 -26 8 -27 30 -3 44 22 13 36 9 40 -13z"/> <path d="M1671 2024 c-34 -44 -24 -86 27 -113 28 -15 77 1 92 30 26 48 -10 109 -65 109 -24 0 -39 -7 -54 -26z m77 -31 c19 -38 -21 -61 -48 -28 -10 12 -10 18 0 30 17 20 37 19 48 -2z"/> <path d="M1044 2015 c-14 -37 26 -69 53 -42 22 22 8 57 -23 57 -14 0 -27 -7 -30 -15z"/> <path d="M1904 2016 c-10 -25 0 -51 20 -54 27 -6 48 25 35 49 -12 22 -47 25 -55 5z"/> <path d="M734 1939 c-8 -14 11 -33 25 -25 6 4 11 11 11 16 0 13 -29 20 -36 9z"/> <path d="M2296 1935 c-12 -12 -13 -21 -6 -36 13 -23 33 -25 51 -3 9 11 10 20 3 32 -15 23 -29 25 -48 7z"/> <path d="M1136 1879 l-26 -20 0 -354 0 -354 26 -20 c33 -26 45 -26 78 0 l26 20 0 150 0 149 263 -2 262 -3 3 -147 c2 -145 3 -147 29 -167 32 -26 44 -26 77 0 l26 20 0 350 0 350 -25 24 c-29 30 -45 31 -78 4 -26 -20 -27 -22 -29 -167 l-3 -147 -260 0 -260 0 -3 147 c-2 145 -3 147 -29 167 -32 26 -44 26 -77 0z m64 -171 c7 -195 -17 -181 305 -181 321 1 297 -13 302 175 3 133 9 156 37 145 21 -8 21 -24 18 -370 -2 -266 -5 -309 -18 -314 -29 -11 -36 15 -37 147 -2 132 -2 132 -31 156 l-28 25 -249 -3 c-314 -4 -293 10 -297 -184 -3 -108 -7 -136 -18 -141 -35 -13 -38 11 -37 341 1 179 4 330 8 336 4 6 14 10 23 8 15 -3 18 -23 22 -140z"/> <path d="M634 1826 c-10 -26 4 -48 28 -44 17 2 23 10 23 28 0 18 -6 26 -23 28 -13 2 -25 -3 -28 -12z"/> <path d="M1350 1771 c-17 -32 -11 -60 15 -77 52 -34 111 31 70 76 -23 26 -71 26 -85 1z"/> <path d="M1576 1774 c-22 -21 -20 -50 4 -74 24 -24 38 -25 68 -4 24 16 28 44 12 75 -13 23 -62 26 -84 3z"/> <path d="M2360 1770 c0 -11 7 -20 15 -20 8 0 15 9 15 20 0 11 -7 20 -15 20 -8 0 -15 -9 -15 -20z"/> <path d="M683 1606 c-62 -28 -84 -103 -47 -165 20 -35 76 -65 105 -58 12 3 30 -5 49 -23 l30 -28 0 -179 c0 -201 10 -255 60 -315 16 -20 53 -48 82 -62 45 -22 65 -26 145 -26 80 0 96 3 113 20 24 24 25 38 5 67 -13 19 -26 22 -114 25 -90 3 -102 5 -127 28 -49 45 -54 73 -54 280 0 204 -2 213 -52 266 -21 23 -28 38 -24 52 9 28 -17 87 -47 107 -35 23 -87 27 -124 11z m108 -55 c20 -20 29 -39 29 -61 0 -20 11 -46 28 -69 16 -20 33 -45 37 -56 5 -11 12 -113 15 -226 l5 -206 28 -36 c39 -52 73 -66 172 -73 111 -9 109 -28 -3 -32 -86 -3 -130 11 -179 57 -52 49 -57 73 -63 286 -4 179 -7 203 -25 227 -22 30 -72 58 -103 58 -53 0 -95 78 -64 121 31 45 83 49 123 10z"/> <path d="M970 1525 c-17 -20 -8 -49 16 -53 30 -4 48 21 34 47 -13 25 -33 27 -50 6z"/> <path d="M1990 1525 c-18 -22 -8 -50 19 -50 32 0 49 28 32 49 -17 20 -35 20 -51 1z"/> <path d="M2086 1364 c-14 -13 -16 -47 -16 -218 0 -191 -1 -205 -21 -230 -31 -39 -71 -56 -133 -56 -58 0 -76 -14 -76 -58 0 -40 34 -55 109 -50 86 6 147 39 190 102 43 62 50 108 51 302 0 158 -2 173 -21 198 -23 29 -60 34 -83 10z m64 -234 c0 -170 -1 -178 -26 -228 -34 -69 -103 -112 -181 -112 -78 0 -68 32 11 37 52 3 111 44 136 93 18 35 20 58 20 223 0 101 3 187 7 191 4 4 13 -1 20 -10 9 -13 13 -67 13 -194z"/> <path d="M1362 1324 c-24 -17 -30 -62 -10 -82 17 -17 64 -15 82 4 45 45 -20 115 -72 78z"/> <path d="M1580 1320 c-38 -38 -15 -90 39 -90 33 0 51 16 51 47 0 26 -32 63 -55 63 -8 0 -24 -9 -35 -20z"/> <path d="M664 1279 c-10 -17 13 -36 27 -22 12 12 4 33 -11 33 -5 0 -12 -5 -16 -11z"/> <path d="M2333 1263 c-18 -7 -16 -42 2 -49 24 -10 47 14 34 37 -10 19 -15 21 -36 12z"/> <path d="M655 1120 c-8 -27 1 -40 30 -40 27 0 41 26 24 46 -17 20 -47 17 -54 -6z"/> <path d="M2290 1104 c-11 -12 -10 -18 3 -32 16 -15 18 -15 34 0 13 14 14 20 3 32 -7 9 -16 16 -20 16 -4 0 -13 -7 -20 -16z"/> <path d="M1235 1085 c-40 -39 -29 -97 22 -116 58 -22 116 36 94 94 -19 51 -77 62 -116 22z m73 -48 c3 -23 0 -27 -21 -27 -29 0 -43 26 -26 47 18 21 44 11 47 -20z"/> <path d="M1455 1085 c-14 -13 -25 -36 -25 -50 0 -28 40 -75 64 -75 43 0 86 43 86 86 0 24 -47 64 -75 64 -14 0 -37 -11 -50 -25z m80 -35 c8 -12 -5 -38 -20 -44 -23 -8 -47 22 -35 44 10 18 44 18 55 0z"/> <path d="M1675 1085 c-39 -38 -32 -86 16 -111 77 -39 145 51 84 111 -13 14 -36 25 -50 25 -14 0 -37 -11 -50 -25z m75 -34 c14 -26 13 -29 -9 -41 -28 -14 -55 13 -41 41 14 24 36 24 50 0z"/> <path d="M1044 1035 c-14 -37 26 -69 53 -42 22 22 8 57 -23 57 -14 0 -27 -7 -30 -15z"/> <path d="M1907 1043 c-16 -15 -6 -52 15 -59 28 -9 52 20 37 47 -10 19 -39 25 -52 12z"/> <path d="M1334 835 c-21 -33 -7 -71 32 -85 24 -9 26 -14 21 -49 -15 -114 111 -187 195 -112 29 26 34 37 38 93 l5 63 55 3 c60 4 90 22 90 57 0 12 -9 30 -19 39 -30 27 -178 20 -218 -10 l-29 -22 -40 24 c-54 33 -108 32 -130 -1z m380 -25 c11 -10 -1 -15 -55 -24 -50 -9 -69 -34 -76 -101 -7 -64 -31 -89 -85 -87 -45 1 -67 29 -75 91 -4 35 -14 63 -30 82 -14 16 -22 33 -18 39 9 15 48 12 71 -5 23 -18 68 -19 97 -3 49 26 147 31 171 8z"/> </g> </svg> 